:SAMPLES-PER-SECOND 30
:FULLY-SPECIFIED
:DEGREES
64
root  38.1731 35.7754 -2.61431 -50.5246 -88.9039 54.4338
RightUpLeg  -39.2847 -12.8169 5.90283
RightLeg  49.6954 -5.26334 -6.984
RightFoot  -16.3482 -0.250983 -3.31162
RightToes  0.000482159 0.542163 -0.142577
Spine  29.2503 -7.73357 6.13334
Spine1  -5.11153 -9.75502 19.5426
HEad  -39.0517 15.6423 -22.9955
LeftShoulder1  10.9319 -14.9757 -51.6201
LeftArm  0.0890829 -1.08418 -37.1992
LeftForeArm  41.3992 -47.4918 -9.32611
LeftHand  -0.25398 0.0180481 5.50724
RightShoulder  6.59796 11.1075 39.0757
RightArm  -7.06412 -48.4254 19.2729
RightForeArm  -7.59231 46.5849 12.3704
RightHand  -6.97155 17.1991 -35.1645
LeftUpLeg  2.17501 7.67887 -3.55402
LeftLeg  47.179 9.71087 11.6336
LeftFoot  -23.1314 -0.417193 -5.19309
LeftToes  1.06246e-005 4.65855e-005 -8.18504e-006
65
root  36.2623 35.2183 -2.52039 162.399 -87.7099 -160.807
RightUpLeg  -36.1186 -12.626 7.3102
RightLeg  54.827 -4.44296 -7.14956
RightFoot  -20.1238 -0.487403 -4.6269
RightToes  0.000482159 0.542163 -0.142577
Spine  30.9774 -6.79525 11.0666
Spine1  -4.28024 -7.24264 18.3097
HEad  -41.4848 14.702 -26.1283
LeftShoulder1  11.7003 -15.3522 -54.0784
LeftArm  1.05547 1.52834 -32.6341
LeftForeArm  35.7869 -35.781 -5.93374
LeftHand  -0.25398 0.0180481 5.50724
RightShoulder  7.32572 11.1699 43.5333
RightArm  -9.16426 -29.1705 15.3173
RightForeArm  -7.65399 48.5269 13.2462
RightHand  -7.75709 18.5359 -36.7966
LeftUpLeg  -7.49541 8.30069 -2.20014
LeftLeg  69.3232 6.53634 19.138
LeftFoot  -19.0333 0.11805 -0.0934029
LeftToes  1.06246e-005 4.65855e-005 -8.18504e-006
66
root  34.6458 34.7501 -2.51209 149.613 -84.3121 -151.167
RightUpLeg  -31.1849 -12.9723 7.85706
RightLeg  58.156 -2.67985 -5.14186
RightFoot  -23.6744 -0.65212 -4.56151
RightToes  0.000482159 0.542163 -0.142577
Spine  33.2205 -6.25481 15.2459
Spine1  -3.39516 -4.59158 15.1661
HEad  -43.1484 13.8053 -29.0415
LeftShoulder1  11.6617 -15.3139 -54
LeftArm  -3.29359 5.84933 -25.1778
LeftForeArm  27.1325 -26.6352 -4.24205
LeftHand  -0.25398 0.0180481 5.50724
RightShoulder  7.95179 11.5763 46.0946
RightArm  -10.4744 -3.65884 13.0728
RightForeArm  -5.38863 48.558 13.1119
RightHand  -8.05521 19.2098 -37.1218
LeftUpLeg  -20.4127 8.76115 -0.846871
LeftLeg  87.5429 0.0544041 21.7443
LeftFoot  -18.0189 0.315508 3.47765
LeftToes  1.06246e-005 4.65855e-005 -8.18504e-006
67
root  33.1271 34.7252 -2.54412 158.478 -82.1928 -163.427
RightUpLeg  -24.7861 -14.5341 5.58813
RightLeg  59.1682 -0.966358 -2.27546
RightFoot  -26.1083 -0.73116 -4.2715
RightToes  0.000482159 0.542163 -0.142577
Spine  34.8869 -5.81342 18.7841
Spine1  -2.56902 -1.76221 9.57845
HEad  -42.5224 11.5661 -31.1314
LeftShoulder1  10.7408 -14.9203 -50.8771
LeftArm  -13.0421 7.70943 -15.9787
LeftForeArm  22.3834 -23.3265 -3.81498
LeftHand  -0.25398 0.0180481 5.50724
RightShoulder  8.17646 12.4625 44.7454
RightArm  -13.5697 22.1649 12.3805
RightForeArm  -1.74413 48.8879 13.0113
RightHand  -7.94878 19.1807 -36.7054
LeftUpLeg  -35.3808 7.92639 -0.587608
LeftLeg  97.8258 -3.73833 19.303
LeftFoot  -18.0045 0.345411 4.06529
LeftToes  1.06246e-005 4.65855e-005 -8.18504e-006
68
root  31.5095 35.1714 -2.62608 174.203 -80.633 177.19
RightUpLeg  -17.3331 -15.3438 0.358673
RightLeg  58.3125 -0.0333703 -0.553033
RightFoot  -27.0436 -0.760847 -4.19149
RightToes  0.000482159 0.542163 -0.142577
Spine  36.637 -4.93082 22.1725
Spine1  -1.77964 2.22348 0.98603
HEad  -39.6312 7.05349 -30.2879
LeftShoulder1  9.51162 -14.7109 -45.5353
LeftArm  -23.59 2.41594 -6.35805
LeftForeArm  22.2092 -24.7997 -4.13862
LeftHand  -0.25398 0.0180481 5.50724
RightShoulder  7.28989 13.0436 37.9723
RightArm  -23.1264 41.688 9.72985
RightForeArm  3.03924 51.2747 13.8445
RightHand  -7.59245 18.7092 -35.8246
LeftUpLeg  -49.2712 7.58318 -1.36586
LeftLeg  99.9638 -3.82341 16.1811
LeftFoot  -17.7821 0.260758 2.73962
LeftToes  1.06246e-005 4.65855e-005 -8.18504e-006
69
root  29.7582 36.1912 -2.88532 -165.113 -78.1641 152.523
RightUpLeg  -8.05844 -13.3517 -6.94614
RightLeg  54.1087 0.617031 0.48296
RightFoot  -26.7236 -0.697802 -3.88903
RightToes  0.000482159 0.542163 -0.142577
Spine  40.3944 -3.46129 22.7539
Spine1  -1.7825 6.69903 -9.33146
HEad  -36.9711 1.64002 -25.9494
LeftShoulder1  8.19683 -14.9923 -38.1716
LeftArm  -33.341 -8.16484 1.82528
LeftForeArm  23.1054 -28.3604 -4.87244
LeftHand  -0.25398 0.0180481 5.50724
RightShoulder  5.20185 12.4816 26.3715
RightArm  -41.2593 51.2652 1.48691
RightForeArm  7.79278 55.1839 15.7172
RightHand  -7.42655 18.3994 -35.5275
LeftUpLeg  -59.6743 9.76824 -4.47871
LeftLeg  96.078 -2.50412 15.4425
LeftFoot  -17.6682 0.223169 2.11755
LeftToes  1.06246e-005 4.65855e-005 -8.18504e-006
70
root  27.9429 37.9871 -3.40043 -145.714 -75.177 130.088
RightUpLeg  2.72729 -10.2322 -14.2926
RightLeg  43.8795 1.50667 1.22199
RightFoot  -22.4364 -0.326878 -1.81194
RightToes  0.000482159 0.542163 -0.142577
Spine  44.8175 -1.59231 18.8749
Spine1  -2.99934 9.39708 -18.1682
HEad  -35.978 -2.47486 -19.8057
LeftShoulder1  6.33 -15.2499 -27.6127
LeftArm  -43.6467 -17.2177 7.54011
LeftForeArm  26.2463 -32.0956 -5.57515
LeftHand  -0.25398 0.0180481 5.50724
RightShoulder  2.87081 10.9385 12.8521
RightArm  -58.3624 49.8316 -6.95429
RightForeArm  10.4624 59.0093 18.0955
RightHand  -7.90726 19.0948 -36.6388
LeftUpLeg  -67.5125 13.0823 -10.4374
LeftLeg  89.0684 -0.570353 16.1807
LeftFoot  -17.4918 0.199786 1.76821
LeftToes  1.06246e-005 4.65855e-005 -8.18504e-006
